<?xml version="1.0" encoding="UTF-8" standalone="no"?>
<svg width="161px" height="41px" viewBox="0 0 161 41" version="1.1" xmlns="http://www.w3.org/2000/svg" xmlns:xlink="http://www.w3.org/1999/xlink">
    <!-- Generator: Sketch 3.6.1 (26313) - http://www.bohemiancoding.com/sketch -->
    <title>99minutos-logo</title>
    <desc>Created with Sketch.</desc>
    <defs></defs>
    <g id="Page-1" stroke="none" stroke-width="1" fill="none" fill-rule="evenodd">
        <g id="99-LAnding" transform="translate(-55.000000, -34.000000)">
            <g id="99minutos-logo" transform="translate(55.000000, 34.000000)">
                <path d="M50.2503819,23.0736042 L50.2503819,29.1390417 L47.1256719,29.1390417 L47.1256719,22.9901094 C47.1256719,22.0979323 46.9910827,21.4423594 46.7221155,21.0240312 C46.452937,20.6057031 46.0185328,20.3966458 45.418269,20.3966458 C44.8182165,20.3966458 44.286832,20.6232135 43.8249606,21.0761354 C43.3624554,21.5294844 43.131731,22.1953073 43.131731,23.0736042 L43.131731,29.1390417 L40.0275157,29.1390417 L40.0275157,17.8868906 L43.131731,17.8868906 L43.131731,19.1625885 C43.9868058,18.1867031 44.9663281,17.6985469 46.0702979,17.6985469 C46.7738806,17.6985469 47.4117533,17.9076042 47.9843386,18.3259323 C48.5565013,18.7442604 48.9879475,19.2533437 49.2776207,19.8527552 C49.7052638,19.169849 50.2814409,18.639625 51.0057297,18.263151 C51.7300184,17.8868906 52.4574764,17.6985469 53.1889488,17.6985469 C54.4993451,17.6985469 55.5547192,18.0927448 56.3552822,18.8802865 C57.155,19.6682552 57.5553871,20.8079271 57.5553871,22.2999427 L57.5553871,29.1390417 L54.4304659,29.1390417 L54.4304659,22.9901094 C54.4304659,21.261276 53.8027349,20.3966458 52.547273,20.3966458 C51.9267257,20.3966458 51.3885801,20.6232135 50.9334698,21.0761354 C50.477937,21.5294844 50.2503819,22.1953073 50.2503819,23.0736042 L50.2503819,23.0736042 L50.2503819,23.0736042 Z M59.5706339,16.4542396 C59.2188425,16.0984792 59.0428412,15.6630677 59.0428412,15.1469375 C59.0428412,14.6312344 59.2188425,14.1953958 59.5706339,13.8396354 C59.9224252,13.4843021 60.3534488,13.3064219 60.8641273,13.3064219 C61.3741719,13.3064219 61.8056181,13.4843021 62.1571982,13.8396354 C62.5092008,14.1953958 62.6852021,14.6312344 62.6852021,15.1469375 C62.6852021,15.6630677 62.5092008,16.0984792 62.1571982,16.4542396 C61.8056181,16.8095729 61.3741719,16.9874531 60.8641273,16.9874531 C60.3534488,16.9874531 59.9224252,16.8095729 59.5706339,16.4542396 L59.5706339,16.4542396 L59.5706339,16.4542396 Z M85.997981,17.8868906 L83.2069974,17.8868906 L83.2069974,23.951901 C83.2069974,24.8169583 82.979231,25.4755208 82.5239094,25.9284427 C82.0687992,26.3817917 81.5306535,26.6083594 80.909895,26.6083594 C79.6542218,26.6083594 79.0264908,25.7441563 79.0264908,24.0148958 L79.0264908,17.8868906 L75.9017808,17.8868906 L75.9017808,24.7050625 C75.9017808,26.2250521 76.3156903,27.3715573 77.1435092,28.1456458 C77.9711168,28.9193073 78.995643,29.3062448 80.2164541,29.3062448 C81.4374764,29.3062448 82.4339016,28.7557344 83.2069974,27.6538594 L83.2069974,29.1390417 L86.3317073,29.1390417 L86.3317073,20.1455208 L88.0583373,20.1455208 L88.0583373,25.3324479 C88.0583373,26.5594583 88.4272428,27.5282969 89.1654764,28.2393906 C89.9032874,28.9504844 90.806958,29.3062448 91.8762769,29.3062448 C92.9451732,29.3062448 93.9629383,28.8599427 94.928727,27.9679792 L93.7698228,25.7717031 C93.3694357,26.3017135 92.8798858,26.5665052 92.3005394,26.5665052 C91.9969213,26.5665052 91.7347152,26.4443594 91.5141325,26.2002813 C91.2933386,25.9568438 91.1830472,25.6185938 91.1830472,25.1859583 L91.1830472,20.1455208 L93.873353,20.1455208 L93.873353,17.8868906 L91.1830472,17.8868906 L91.1830472,14.5193385 L88.0583373,14.5193385 L88.0583373,17.8868906 L85.997981,17.8868906 L85.997981,17.8868906 Z M59.3120197,17.8868906 L62.4160236,17.8868906 L62.4160236,29.1390417 L59.3120197,29.1390417 L59.3120197,17.8868906 L59.3120197,17.8868906 Z M67.2175,22.8645469 L67.2175,29.1390417 L64.1132848,29.1390417 L64.1132848,17.8868906 L67.2175,17.8868906 L67.2175,19.1416615 C68.155399,18.1796562 69.210773,17.6985469 70.383622,17.6985469 C71.5560486,17.6985469 72.5389514,18.116875 73.332542,18.9533177 C74.12571,19.789974 74.5225052,20.9055156 74.5225052,22.2999427 L74.5225052,29.1390417 L71.41829,29.1390417 L71.41829,22.7808385 C71.41829,21.0520052 70.7903478,20.187375 69.5353084,20.187375 C68.9143386,20.187375 68.3728123,20.4143698 67.9107297,20.8672917 C67.4482244,21.3202135 67.2175,21.98625 67.2175,22.8645469 L67.2175,22.8645469 L67.2175,22.8645469 Z M106.260211,23.5126458 C106.260211,25.1443177 105.70136,26.5178177 104.583867,27.6329323 C103.466375,28.7486875 102.062591,29.3062448 100.372724,29.3062448 C98.682647,29.3062448 97.2788622,28.7486875 96.1615814,27.6329323 C95.0440892,26.5178177 94.4852375,25.1443177 94.4852375,23.5126458 C94.4852375,21.8816146 95.0440892,20.5049115 96.1615814,19.3821094 C97.2788622,18.2599479 98.682647,17.6985469 100.372724,17.6985469 C102.062591,17.6985469 103.466375,18.2599479 104.583867,19.3821094 C105.70136,20.5049115 106.260211,21.8816146 106.260211,23.5126458 L106.260211,23.5126458 L106.260211,23.5126458 Z M97.6101588,23.5126458 C97.6101588,24.433224 97.868773,25.1827552 98.3860013,25.7612396 C98.9034409,26.340151 99.5656115,26.6290729 100.372724,26.6290729 C101.179837,26.6290729 101.842008,26.340151 102.359236,25.7612396 C102.876676,25.1827552 103.13529,24.433224 103.13529,23.5126458 C103.13529,22.5927083 102.876676,21.8397604 102.359236,21.2538021 C101.842008,20.6682708 101.179837,20.3755052 100.372724,20.3755052 C99.5656115,20.3755052 98.9034409,20.6682708 98.3860013,21.2538021 C97.868773,21.8397604 97.6101588,22.5927083 97.6101588,23.5126458 L97.6101588,23.5126458 L97.6101588,23.5126458 Z M115.233109,25.6356771 C115.233109,26.7441719 114.829552,27.6329323 114.02244,28.3023854 C113.215327,28.9718385 112.191012,29.3062448 110.949283,29.3062448 C110.121465,29.3062448 109.259206,29.156125 108.362508,28.8567396 C107.465598,28.5569271 106.658697,28.1142552 105.941381,27.5282969 L107.307134,25.5626458 C108.466038,26.4689167 109.700583,26.9218385 111.011402,26.9218385 C111.411366,26.9218385 111.728718,26.8417604 111.963245,26.6811771 C112.197773,26.5214479 112.315037,26.3083333 112.315037,26.0435417 C112.315037,25.77875 112.152769,25.5346719 111.828656,25.3115208 C111.504543,25.0887969 111.035277,24.879526 110.421491,24.6839219 C109.807705,24.4891719 109.338438,24.3219687 109.014537,24.182099 C108.690213,24.0428698 108.321307,23.8406458 107.907398,23.5756406 C107.065634,23.0460573 106.644963,22.2615052 106.644963,21.222625 C106.644963,20.1841719 107.058873,19.3370521 107.886692,18.6812656 C108.714299,18.0261198 109.783407,17.6985469 111.094226,17.6985469 C112.404622,17.6985469 113.71523,18.1450625 115.026049,19.037026 L113.867144,21.1286667 C112.901144,20.4594271 111.939159,20.1245937 110.980343,20.1245937 C110.021315,20.1245937 109.542118,20.389599 109.542118,20.9193958 C109.542118,21.2121615 109.693822,21.4423594 109.997228,21.6095625 C110.300635,21.7769792 110.804552,21.9725833 111.508135,22.1953073 C112.211718,22.4182448 112.711621,22.5892917 113.008266,22.7078073 C113.304912,22.8263229 113.660084,23.0110365 114.073993,23.2617344 C114.846667,23.7357969 115.233109,24.5269687 115.233109,25.6356771 L115.233109,25.6356771 L115.233109,25.6356771 Z" id="Fill-1" fill="#323634"></path>
                <path d="M116.654853,28.7728177 C116.303062,28.4174844 116.12706,27.9816458 116.12706,27.4657292 C116.12706,26.9502396 116.303062,26.513974 116.654853,26.1586406 C117.006644,25.8028802 117.437668,25.6252135 117.948135,25.6252135 C118.458391,25.6252135 118.889837,25.8028802 119.241629,26.1586406 C119.59342,26.513974 119.76921,26.9502396 119.76921,27.4657292 C119.76921,27.9816458 119.59342,28.4174844 119.241629,28.7728177 C118.889837,29.1285781 118.458391,29.3062448 117.948135,29.3062448 C117.437668,29.3062448 117.006644,29.1285781 116.654853,28.7728177" id="Fill-8" fill="#85C440"></path>
                <path d="M125.996234,26.5244375 C127.030902,26.5244375 127.962039,26.001901 128.789858,24.9557604 L130.631639,27.047401 C129.196584,28.5535104 127.644688,29.3062448 125.975316,29.3062448 C124.305945,29.3062448 122.895188,28.7728177 121.743467,27.7063906 C120.591535,26.6395365 120.01557,25.24575 120.01557,23.5231094 C120.01557,21.8015365 120.598297,20.4000625 121.764385,19.3195417 C122.929839,18.2390208 124.312706,17.6985469 125.913198,17.6985469 C126.713339,17.6985469 127.523832,17.86575 128.34489,18.2003698 C129.165525,18.5349896 129.886644,19.0301927 130.507614,19.6853385 L128.893388,21.8186198 C128.534413,21.3868385 128.096629,21.0520052 127.579189,20.8147604 C127.061961,20.5777292 126.54769,20.4594271 126.037434,20.4594271 C125.223349,20.4594271 124.523358,20.727849 123.937039,21.2642656 C123.35072,21.8015365 123.057667,22.547651 123.057667,23.5023958 C123.057667,24.4573542 123.35072,25.2002656 123.937039,25.729849 C124.523358,26.2600729 125.209615,26.5244375 125.996234,26.5244375" id="Fill-9" fill="#85C440"></path>
                <path d="M142.406402,23.5126458 C142.406402,25.1443177 141.847761,26.5178177 140.730269,27.6329323 C139.612566,28.7486875 138.208781,29.3062448 136.518915,29.3062448 C134.828837,29.3062448 133.425052,28.7486875 132.307772,27.6329323 C131.19028,26.5178177 130.631639,25.1443177 130.631639,23.5126458 C130.631639,21.8816146 131.19028,20.5049115 132.307772,19.3821094 C133.425052,18.2599479 134.828837,17.6985469 136.518915,17.6985469 C138.208781,17.6985469 139.612566,18.2599479 140.730269,19.3821094 C141.847761,20.5049115 142.406402,21.8816146 142.406402,23.5126458 L142.406402,23.5126458 L142.406402,23.5126458 Z M133.756349,23.5126458 C133.756349,24.433224 134.014963,25.1827552 134.532192,25.7612396 C135.049631,26.340151 135.711802,26.6290729 136.518915,26.6290729 C137.326028,26.6290729 137.988198,26.340151 138.505427,25.7612396 C139.022866,25.1827552 139.28148,24.433224 139.28148,23.5126458 C139.28148,22.5927083 139.022866,21.8397604 138.505427,21.2538021 C137.988198,20.6682708 137.326028,20.3755052 136.518915,20.3755052 C135.711802,20.3755052 135.049631,20.6682708 134.532192,21.2538021 C134.014963,21.8397604 133.756349,22.5927083 133.756349,23.5126458 L133.756349,23.5126458 L133.756349,23.5126458 Z" id="Fill-10" fill="#85C440"></path>
                <path d="M153.611325,23.0736042 L153.611325,29.1390417 L150.486615,29.1390417 L150.486615,22.9901094 C150.486615,22.0979323 150.352026,21.4423594 150.083059,21.0240312 C149.814092,20.6057031 149.379476,20.3966458 148.779213,20.3966458 C148.17916,20.3966458 147.647987,20.6232135 147.185904,21.0761354 C146.72361,21.5294844 146.492675,22.1953073 146.492675,23.0736042 L146.492675,29.1390417 L143.388459,29.1390417 L143.388459,17.8868906 L146.492675,17.8868906 L146.492675,19.1625885 C147.347961,18.1867031 148.327272,17.6985469 149.431241,17.6985469 C150.134824,17.6985469 150.772697,17.9076042 151.345493,18.3259323 C151.917656,18.7442604 152.349102,19.2533437 152.638776,19.8527552 C153.066207,19.169849 153.642385,18.639625 154.366885,18.263151 C155.090962,17.8868906 155.818631,17.6985469 156.549892,17.6985469 C157.8605,17.6985469 158.915874,18.0927448 159.716226,18.8802865 C160.515944,19.6682552 160.916331,20.8079271 160.916331,22.2999427 L160.916331,29.1390417 L157.791621,29.1390417 L157.791621,22.9901094 C157.791621,21.261276 157.163678,20.3966458 155.908217,20.3966458 C155.287669,20.3966458 154.749524,20.6232135 154.294413,21.0761354 C153.838881,21.5294844 153.611325,22.1953073 153.611325,23.0736042" id="Fill-11" fill="#85C440"></path>
                <path d="M18.0770039,17.1634115 C17.7250013,16.4111042 17.1957297,15.7971719 16.4898228,15.3220417 C15.7834934,14.8469115 14.9222913,14.5552135 13.9070617,14.4467344 C12.4390459,14.2899948 11.1749213,14.6071042 10.1142651,15.3980625 C9.05339764,16.1892344 8.4463727,17.319724 8.29234514,18.7893177 C8.13874016,20.2593385 8.46433202,21.489125 9.26996588,22.4793177 C10.0747546,23.469724 11.1493556,24.0366771 12.4941916,24.1803906 C13.5094213,24.2888698 14.487042,24.0915573 15.4276877,23.5890937 C15.2090066,24.6175104 14.8246772,25.4071875 14.2746995,25.9585521 C13.7245105,26.5094896 13.0036024,26.737125 12.1117638,26.642099 C11.7424357,26.6028073 11.3589514,26.4610156 10.9623675,26.2250521 L9.08825984,28.3807552 C9.36441076,28.5609844 9.72275197,28.7499687 10.1641286,28.9472812 C10.7608005,29.2146354 11.3948701,29.3835469 12.0673937,29.4555104 C13.6727454,29.6269844 15.0982927,29.1902917 16.3457257,28.1460729 C16.9550748,27.6220417 17.4735709,26.8752865 17.9010026,25.9038854 C18.3286457,24.9333385 18.6126142,23.7821354 18.7516404,22.4513437 C18.9675748,20.3853281 18.7423438,18.6225417 18.0770039,17.1634115 L18.0770039,17.1634115 L18.0770039,17.1634115 Z M14.7560092,21.0571302 C14.2918136,21.3859844 13.740357,21.5164583 13.1024843,21.448125 C12.4644003,21.3802188 11.9890066,21.1158542 11.6771483,20.6546042 C11.363811,20.1937813 11.2397861,19.6582188 11.3035945,19.0479167 C11.3676142,18.4380417 11.615664,17.9560781 12.0479554,17.6028802 C12.4800354,17.2492552 13.0050814,17.1055417 13.6224593,17.171526 C14.2400486,17.2375104 14.7310774,17.514474 15.0959685,18.001776 C15.4614934,18.4897188 15.6123517,19.0385208 15.5487546,19.6483958 C15.4847349,20.2586979 15.2202047,20.7280625 14.7560092,21.0571302 L14.7560092,21.0571302 L14.7560092,21.0571302 Z" id="Fill-12" fill="#323634"></path>
                <path d="M29.1931877,17.1634115 C28.8413963,16.4111042 28.3121247,15.7971719 27.6062178,15.3220417 C26.8998885,14.8469115 26.0386864,14.5552135 25.023668,14.4467344 C23.5554409,14.2899948 22.2913163,14.6071042 21.2306601,15.3980625 C20.1697927,16.1892344 19.5627677,17.319724 19.4087402,18.7893177 C19.2551352,20.2593385 19.5809383,21.489125 20.3863609,22.4793177 C21.1911496,23.469724 22.2657507,24.0366771 23.6105866,24.1803906 C24.6258163,24.2888698 25.6036483,24.0915573 26.5440827,23.5890937 C26.3256129,24.6175104 25.9410722,25.4071875 25.3913058,25.9585521 C24.8409055,26.5094896 24.1199974,26.737125 23.2283701,26.642099 C22.859042,26.6028073 22.4753465,26.4610156 22.0787625,26.2250521 L20.2046549,28.3807552 C20.4810171,28.5609844 20.839147,28.7499687 21.2807349,28.9472812 C21.8771955,29.2146354 22.5112651,29.3835469 23.184,29.4555104 C24.7891404,29.6269844 26.2146877,29.1902917 27.462332,28.1460729 C28.0714698,27.6220417 28.5901772,26.8752865 29.0173976,25.9038854 C29.4448294,24.9333385 29.7285866,23.7821354 29.8676129,22.4513437 C30.0835472,20.3853281 29.8583163,18.6225417 29.1931877,17.1634115 L29.1931877,17.1634115 L29.1931877,17.1634115 Z M25.8724042,21.0571302 C25.4082087,21.3859844 24.8569633,21.5164583 24.2188793,21.448125 C23.5807953,21.3802188 23.1054016,21.1158542 22.7935433,20.6546042 C22.480206,20.1937813 22.3561811,19.6582188 22.4199895,19.0479167 C22.4840092,18.4380417 22.7320591,17.9560781 23.1645617,17.6028802 C23.5966417,17.2492552 24.1214764,17.1055417 24.7388543,17.171526 C25.3566549,17.2375104 25.8474724,17.514474 26.2123635,18.001776 C26.5778885,18.4897188 26.7287467,19.0385208 26.6651496,19.6483958 C26.6011299,20.2586979 26.3365997,20.7280625 25.8724042,21.0571302 L25.8724042,21.0571302 L25.8724042,21.0571302 Z" id="Fill-13" fill="#323634"></path>
                <path d="M37.4903924,12.4242812 L40.5517165,9.32643229 C40.5517165,9.32643229 38.5208346,4.20570312 31.3647861,0.0450572917 L28.3036732,3.13948958 L31.8777887,6.74855729 L31.1042703,7.53396354 C27.8217297,4.69108333 23.5670617,2.96395833 18.9039777,2.96395833 C8.54271916,2.96523958 0.144519685,11.4524531 0.144519685,21.9258177 C0.144519685,32.3968333 8.54271916,40.8855417 18.9039777,40.8855417 C29.2675604,40.8855417 37.6657598,32.3968333 37.6657598,21.9258177 C37.6657598,17.2108177 35.9570892,12.9120104 33.1457165,9.5965625 L33.9190236,8.8124375 L37.4903924,12.4242812 Z M33.6439291,21.6475729 C33.6439291,29.8864375 27.0353228,36.5658073 18.8834829,36.5658073 C10.731643,36.5658073 4.12303675,29.8864375 4.12303675,21.6475729 C4.12303675,13.4084948 10.731643,6.72933854 18.8834829,6.72933854 C27.0353228,6.72933854 33.6439291,13.4084948 33.6439291,21.6475729 L33.6439291,21.6475729 L33.6439291,21.6475729 Z" id="Fill-14" fill="#85C440"></path>
            </g>
        </g>
    </g>
</svg>