<?xml version="1.0" encoding="UTF-8"?>
<svg xmlns="http://www.w3.org/2000/svg" width="235" height="48" viewBox="0 0 235 48" fill="none">
  <path d="M191.239 34.4324V34.4214C191.239 33.2316 192.198 32.229 193.409 32.229C194.62 32.229 195.579 33.2206 195.579 34.4104V34.4214C195.579 35.6113 194.62 36.6139 193.409 36.6139C192.198 36.6139 191.239 35.6223 191.239 34.4324ZM195.327 34.4214V34.4104C195.327 33.3583 194.505 32.4714 193.409 32.4714C192.313 32.4714 191.491 33.3583 191.491 34.4269V34.438C191.491 35.4901 192.313 36.377 193.409 36.377C194.505 36.377 195.327 35.4901 195.327 34.4214ZM192.56 33.2701H193.557C194.044 33.2701 194.406 33.507 194.406 33.9697V33.9807C194.406 34.3168 194.192 34.5591 193.897 34.6473L194.483 35.4846H193.973L193.447 34.7189H192.987V35.4846H192.565V33.2701H192.56ZM193.519 34.3719C193.803 34.3719 193.968 34.2231 193.968 34.0083V33.9973C193.968 33.7824 193.803 33.6337 193.519 33.6447H192.982V34.3719H193.519Z" fill="#0D298E"></path>
  <path d="M94.7378 23.7845C87.7795 23.7845 82.1416 29.4528 82.1416 36.4488H107.334C107.334 29.4528 101.696 23.7845 94.7378 23.7845Z" fill="#0D298E"></path>
  <path d="M94.7378 22.1924C101.696 22.1924 107.334 16.524 107.334 9.52808H82.1416C82.1416 16.524 87.7795 22.1924 94.7378 22.1924Z" fill="#2861C6"></path>
  <path d="M43.6958 36.4484H34.4966V9.52787H43.6903V11.1749C43.8437 11.0262 43.9259 10.9546 44.0026 10.872C45.7285 9.00456 47.8818 8.09013 50.3911 8.02402C52.8348 7.96343 55.1853 8.41513 57.3111 9.81432C57.985 10.255 58.5549 10.8334 59.0808 11.4449C59.1356 11.511 59.1959 11.5716 59.2671 11.6487C59.3493 11.5771 59.4315 11.5165 59.4972 11.4449C61.1464 9.74822 63.1682 8.75667 65.4693 8.29945C67.6116 7.87529 69.7539 7.88631 71.8688 8.43166C75.5562 9.38465 77.9121 11.7754 78.8381 15.6259C79.0846 16.6505 79.1778 17.7082 79.1778 18.7603C79.1778 24.5278 79.1778 36.4374 79.1778 36.4374L69.9512 36.4484C69.9621 31.0941 69.9566 25.7342 69.9621 20.3798C69.9621 19.5811 69.9073 18.7989 69.6279 18.0442C69.1238 16.667 67.4473 15.6039 65.9898 15.6094C63.8695 15.6204 62.4449 16.7552 61.7875 18.9586C61.4861 19.9667 61.4094 21.0023 61.4094 22.0489C61.4094 26.8469 61.4094 31.6449 61.4094 36.4429C58.3357 36.4429 55.2565 36.4374 52.1828 36.454C52.1937 31.0996 52.1883 25.7397 52.1883 20.3853C52.1883 19.5866 52.1335 18.7989 51.8595 18.0387C51.35 16.6175 50.1282 15.7251 48.6269 15.6204C46.0847 15.4441 44.5999 16.9314 43.9972 19.1845C43.7506 20.1099 43.6903 21.0574 43.6903 22.0159C43.6903 26.6652 43.6903 36.2722 43.6903 36.454L43.6958 36.4484Z" fill="#2861C6"></path>
  <path d="M21.5165 11.8411V9.522H30.7377V9.89108C30.7377 18.6057 30.7377 27.7335 30.7432 36.4481L21.5165 36.4205V34.1014C21.4672 34.0629 21.4124 34.0243 21.3631 33.9857C21.3083 34.0959 21.281 34.2226 21.1988 34.3107C19.4619 36.2167 17.2977 37.3184 14.7719 37.7316C12.5693 38.0896 10.3942 37.9795 8.26286 37.2799C5.36995 36.3269 3.28245 34.4264 1.88531 31.7382C0.93744 29.9204 0.433372 27.9703 0.186817 25.9432C-0.0597374 23.9105 -0.0597374 21.8778 0.203254 19.8451C0.564868 17.0853 1.38672 14.4963 3.12356 12.2708C4.91519 9.98473 7.27664 8.66817 10.1257 8.21096C12.5693 7.81434 14.9691 7.9851 17.2922 8.90504C18.799 9.49997 20.0975 10.4144 21.1878 11.6098C21.2536 11.6814 21.3248 11.753 21.396 11.8246C21.407 11.8356 21.4344 11.8301 21.5165 11.8411ZM9.22168 23.2164C9.24908 23.5139 9.28195 24.0757 9.34222 24.6266C9.38057 24.9461 9.45728 25.2656 9.53399 25.5796C10.2627 28.5322 12.3885 30.2895 15.2979 30.3335C17.9716 30.3776 20.0482 28.9343 20.9413 26.3949C21.659 24.3402 21.6754 22.2524 21.1385 20.1481C20.4262 17.3552 18.3004 15.6311 15.4623 15.609C12.931 15.5925 11.09 16.7218 10.0052 19.0354C9.42441 20.2748 9.2436 21.5969 9.22168 23.2109V23.2164Z" fill="#2861C6"></path>
  <path d="M110.161 9.50023H119.349V11.5494C119.349 11.6927 119.525 11.7643 119.618 11.6596C121.574 9.50023 124.028 8.38749 126.889 8.09002C128.938 7.87519 130.943 8.04596 132.883 8.75106C136.006 9.88032 138.104 12.0893 139.403 15.108C140.613 17.9174 140.931 20.8865 140.833 23.9163C140.756 26.1142 140.416 28.2626 139.611 30.3118C138.296 33.661 136.071 36.1068 132.609 37.2636C130.532 37.9577 128.395 38.0679 126.237 37.7484C124.396 37.4729 122.697 36.834 121.212 35.7047C120.577 35.2199 120.007 34.6525 119.36 34.0741V40.9434V47.9999H110.161V9.50023ZM119.36 22.9357C119.36 22.9357 119.481 24.726 119.678 25.5964C120.358 28.538 122.505 30.2897 125.404 30.3283C128.072 30.3613 130.17 28.9126 131.064 26.3951C131.787 24.3514 131.809 22.2747 131.272 20.1814C130.554 17.361 128.406 15.6258 125.552 15.5983C123.207 15.5762 121.42 16.5623 120.303 18.6555C119.59 19.9886 119.366 21.4429 119.36 22.9357Z" fill="#0D298E"></path>
  <path d="M171.071 18.9588C170.77 19.9669 170.693 21.0025 170.693 22.0491C170.693 26.8471 170.693 31.6451 170.693 36.4431C167.619 36.4431 164.54 36.4376 161.467 36.4541C161.478 31.0998 161.472 25.7399 161.472 20.3855C161.472 19.5868 161.417 18.799 161.143 18.0388C160.634 16.6176 159.412 15.7252 157.911 15.6206C155.368 15.4443 153.884 16.9316 153.281 19.1846C153.034 20.1101 152.974 21.0576 152.974 22.0161C152.974 26.6653 152.974 36.2723 152.974 36.4541H143.775V9.52804H152.969V11.1751C153.122 11.0264 153.204 10.9548 153.281 10.8721C155.007 9.01023 157.155 8.09029 159.664 8.0297C162.108 7.9691 164.458 8.42081 166.584 9.82C167.258 10.2607 167.828 10.8391 168.354 11.4505C168.408 11.5166 168.469 11.5772 168.54 11.6544C168.622 11.5828 168.704 11.5222 168.77 11.4505C170.419 9.75389 172.441 8.76234 174.742 8.30513C176.884 7.88097 179.027 7.89198 181.142 8.43734C184.829 9.39033 187.185 11.7811 188.111 15.6316C188.357 16.6562 188.451 17.7138 188.451 18.766C188.451 24.5335 188.451 36.4431 188.451 36.4431L179.224 36.4541C179.235 31.0998 179.229 25.7399 179.235 20.3855C179.235 19.5868 179.18 18.8045 178.901 18.0499C178.397 16.6727 176.72 15.6095 175.263 15.6151C173.142 15.6261 171.718 16.7608 171.06 18.9643" fill="#0D298E"></path>
</svg>
